<svg xmlns="http://www.w3.org/2000/svg" viewBox="0 0 67.83 917.2"><defs><style>.cls-1{fill:#c4bea5;stroke:#ebf6fb;}.cls-1,.cls-2{stroke-miterlimit:10;}.cls-2{fill:none;stroke:#f5f5f5;}.cls-3{fill:#37352e;}</style></defs><title>ski_zai_v4</title><g id="Layer_2" data-name="Layer 2"><g id="Layer_1-2" data-name="Layer 1"><g id="Layer_2-2" data-name="Layer 2"><g id="Layer_1-2-2" data-name="Layer 1-2"><path class="cls-1" d="M33.47,916.7h0a32.9,32.9,0,0,1-33-33l.83-850.2a32.9,32.9,0,0,1,33-33h0a32.9,32.9,0,0,1,33,33L66.5,884A33.23,33.23,0,0,1,33.47,916.7Z"/><line class="cls-2" x1="34.32" y1="44" x2="33.5" y2="885.5"/><path class="cls-3" d="M12.06,406.08c15.3,0,30-1.17,45.3.64v-.9c0-23.7-10.46-42.91-23.36-42.92s-23.42,19.18-23.44,42.88v.3Z"/><path class="cls-3" d="M33.82,554.3h0A18.18,18.18,0,0,1,15.54,536l0-21.6A18.18,18.18,0,0,1,33.88,496.1h0a18.18,18.18,0,0,1,18.28,18.32l0,21.6A18.37,18.37,0,0,1,33.82,554.3Z"/></g></g></g></g></svg>